<?xml version="1.0" encoding="UTF-8"?>
<!DOCTYPE svg PUBLIC "-//W3C//DTD SVG 1.1//EN" "http://www.w3.org/Graphics/SVG/1.1/DTD/svg11.dtd">
<svg xmlns="http://www.w3.org/2000/svg" version="1.1" width="314px" height="259px" style="shape-rendering:geometricPrecision; text-rendering:geometricPrecision; image-rendering:optimizeQuality; fill-rule:evenodd; clip-rule:evenodd" xmlns:xlink="http://www.w3.org/1999/xlink">
<g><path style="opacity:0.969" fill="#000000" d="M 156.5,6.5 C 158.527,6.33788 160.527,6.50454 162.5,7C 164,8.5 165.5,10 167,11.5C 170.747,18.6628 174.747,25.6628 179,32.5C 185.076,27.546 191.243,22.7127 197.5,18C 201.475,16.6206 204.309,17.7873 206,21.5C 206.593,26.7627 207.927,31.7627 210,36.5C 215.353,32.7272 221.187,30.5605 227.5,30C 228.333,30.8333 229.167,31.6667 230,32.5C 230.738,36.7097 230.572,40.8764 229.5,45C 231.321,48.3187 233.988,50.8187 237.5,52.5C 245.035,49.5884 252.701,49.0884 260.5,51C 265.699,53.7248 268.366,58.0582 268.5,64C 266.791,68.8791 265.291,73.7124 264,78.5C 269.587,88.0059 274.92,97.6726 280,107.5C 285.517,111.594 290.85,115.927 296,120.5C 305.464,133.372 308.464,147.706 305,163.5C 299.669,189.875 283.836,202.042 257.5,200C 258.945,198.29 259.778,196.456 260,194.5C 245.052,213.118 227.885,229.284 208.5,243C 196.97,249.24 184.637,252.574 171.5,253C 141.5,257.257 115.167,249.59 92.5,230C 79.8953,218.4 68.3953,205.9 58,192.5C 58.5237,195.218 59.357,197.885 60.5,200.5C 35.6711,201.326 20.1711,189.66 14,165.5C 8.06503,140.394 16.065,121.394 38,108.5C 43.5386,97.9174 49.7053,87.7507 56.5,78C 50.3547,69.787 50.0213,61.4537 55.5,53C 64.0422,48.6454 72.7088,48.4787 81.5,52.5C 89.3545,49.7542 91.6878,44.4209 88.5,36.5C 89.1287,29.7002 92.462,27.8669 98.5,31C 102.288,32.9777 106.121,34.8111 110,36.5C 111.383,31.9199 112.383,27.2532 113,22.5C 115.657,16.8792 119.491,16.0459 124.5,20C 130,24.1667 135.5,28.3333 141,32.5C 145.423,23.3095 150.59,14.6428 156.5,6.5 Z M 69.5,85.5 C 82.2783,93.0607 94.9449,100.894 107.5,109C 114.873,113.441 122.706,116.607 131,118.5C 138.006,118.325 141.506,114.659 141.5,107.5C 140.313,100.147 136.813,94.1474 131,89.5C 130.312,88.6683 130.479,88.0016 131.5,87.5C 145.783,94.5215 149.617,105.188 143,119.5C 141.421,121.041 139.587,122.208 137.5,123C 132.5,123.333 127.5,123.667 122.5,124C 110.892,135.163 98.5589,136.163 85.5,127C 82.4333,123.703 80.2666,119.869 79,115.5C 78.6667,109.167 78.3333,102.833 78,96.5C 74.1667,94 71,90.8333 68.5,87C 69.056,86.6174 69.3893,86.1174 69.5,85.5 Z M 248.5,85.5 C 250.028,85.5173 250.528,86.184 250,87.5C 246.087,91.3597 242.587,95.5264 239.5,100C 243.132,123.697 233.132,134.364 209.5,132C 204.956,130.118 200.956,127.451 197.5,124C 191.419,123.862 185.419,123.196 179.5,122C 172.203,115.662 170.703,108.162 175,99.5C 178.476,93.6629 183.309,89.8296 189.5,88C 183.558,93.7205 179.558,100.554 177.5,108.5C 177.904,115.071 181.404,118.404 188,118.5C 196.313,116.596 204.147,113.429 211.5,109C 223.898,101.142 236.231,93.3088 248.5,85.5 Z M 150.5,124.5 C 163.085,122.646 174.419,125.48 184.5,133C 176.183,131.144 167.683,129.977 159,129.5C 151.105,129.538 143.438,130.871 136,133.5C 135.5,133.333 135,133.167 134.5,133C 139.208,128.815 144.542,125.981 150.5,124.5 Z M 135.5,150.5 C 142.825,151.483 147.825,155.483 150.5,162.5C 149.855,163.646 149.022,164.646 148,165.5C 143.101,161.301 137.934,157.468 132.5,154C 133.365,152.641 134.365,151.474 135.5,150.5 Z M 180.5,150.5 C 184.138,149.737 185.638,151.07 185,154.5C 181.134,157.335 177.634,160.502 174.5,164C 169.376,165.547 167.876,164.047 170,159.5C 173.078,155.915 176.578,152.915 180.5,150.5 Z M 67.5,162.5 C 71.8814,162.372 76.2147,162.705 80.5,163.5C 80.4487,166.541 79.4487,169.208 77.5,171.5C 78.2186,173.728 79.552,175.561 81.5,177C 95.2789,184.391 109.612,190.391 124.5,195C 150.936,197.341 177.269,196.674 203.5,193C 215.375,187.711 227.041,182.045 238.5,176C 242.301,172.624 242.301,169.124 238.5,165.5C 239.09,164.201 240.09,163.368 241.5,163C 248.146,161.779 254.313,162.946 260,166.5C 260.684,167.784 260.517,168.951 259.5,170C 256.333,170.252 253.333,170.418 250.5,170.5C 247.527,174.94 244.194,179.107 240.5,183C 235.62,185.607 230.62,187.94 225.5,190C 220.955,196.921 216.788,204.088 213,211.5C 209.613,216.749 205.447,217.582 200.5,214C 196.167,210.333 191.833,206.667 187.5,203C 168.795,202.081 150.128,202.414 131.5,204C 127.848,206.907 124.181,209.907 120.5,213C 117.95,214.442 115.284,215.608 112.5,216.5C 109.906,215.408 107.739,213.741 106,211.5C 102.473,205.779 99.4728,199.779 97,193.5C 95.8333,192.333 94.6667,191.167 93.5,190C 87.6818,187.59 82.0151,184.923 76.5,182C 74.0814,177.828 71.4148,173.828 68.5,170C 65.2879,170.565 62.1212,170.398 59,169.5C 58.3162,168.216 58.4829,167.049 59.5,166C 62.1579,164.522 64.8245,163.355 67.5,162.5 Z"/></g>
</svg>
