<?xml version="1.0" standalone="no"?>
<!DOCTYPE svg PUBLIC "-//W3C//DTD SVG 20010904//EN"
 "http://www.w3.org/TR/2001/REC-SVG-20010904/DTD/svg10.dtd">
<svg version="1.0" xmlns="http://www.w3.org/2000/svg"
 width="677.000000pt" height="369.000000pt" viewBox="0 0 677.000000 369.000000"
 preserveAspectRatio="xMidYMid meet">

<g transform="translate(0.000000,369.000000) scale(0.100000,-0.100000)"
fill="#000000" stroke="none">
<path d="M3347 2798 c-14 -18 -41 -66 -61 -105 -20 -40 -39 -73 -41 -73 -3 0
-39 27 -81 60 -109 87 -135 82 -148 -32 -4 -32 -12 -58 -17 -58 -5 0 -36 14
-68 30 -84 44 -109 26 -96 -68 6 -45 4 -49 -25 -70 -19 -14 -38 -21 -48 -17
-42 16 -111 23 -148 15 -79 -18 -108 -100 -63 -180 l21 -38 -30 -44 c-16 -24
-51 -84 -76 -132 -37 -71 -54 -93 -84 -108 -56 -30 -91 -67 -125 -133 -30 -57
-32 -66 -32 -170 1 -99 3 -117 29 -175 59 -135 149 -204 279 -217 37 -3 67 -3
67 2 0 4 -9 20 -21 37 -19 26 -20 54 -1 32 5 -5 43 -50 85 -100 150 -179 290
-294 425 -349 153 -62 472 -59 628 7 125 52 291 195 438 376 32 40 63 75 67
78 14 8 -10 -49 -29 -70 -17 -18 -15 -19 57 -12 132 12 207 64 268 186 57 113
62 273 13 374 -25 54 -88 119 -131 136 -22 9 -39 30 -61 74 -17 33 -50 93 -74
133 -24 39 -44 76 -44 82 0 6 9 25 20 43 11 18 20 46 20 61 0 37 -25 83 -52
98 -29 15 -114 15 -161 0 -33 -11 -39 -10 -67 11 -30 22 -31 25 -25 79 5 45 3
59 -10 73 -19 19 -36 16 -98 -20 -23 -13 -47 -24 -54 -24 -7 0 -15 21 -18 48
-18 133 -41 137 -166 30 -31 -26 -61 -48 -65 -48 -5 0 -26 36 -46 79 -67 139
-103 163 -151 99z m-529 -678 c297 -194 382 -221 418 -134 20 47 5 92 -49 151
-22 24 -37 46 -34 50 14 13 70 -22 102 -65 44 -57 52 -100 30 -158 -22 -58
-56 -76 -137 -73 -48 2 -62 -1 -70 -14 -12 -22 -73 -53 -119 -62 -51 -10 -114
11 -159 51 -50 45 -64 89 -57 176 3 37 2 68 -3 68 -11 0 -80 67 -80 78 0 9 10
22 17 22 2 0 65 -40 141 -90z m1312 76 c0 -8 -22 -34 -48 -58 -39 -35 -47 -47
-41 -63 13 -34 10 -104 -7 -143 -22 -54 -60 -89 -117 -108 -67 -22 -142 -7
-191 39 -30 29 -39 32 -85 29 -91 -7 -141 32 -149 117 -3 40 1 53 30 96 32 49
99 97 114 82 4 -4 -8 -24 -28 -45 -73 -76 -86 -153 -32 -188 53 -35 145 4 394
167 136 89 160 101 160 75z m-591 -333 c31 -16 57 -34 59 -42 4 -10 0 -12 -14
-7 -11 4 -53 14 -94 22 -81 16 -170 12 -249 -12 -62 -19 -67 -18 -45 7 64 71
235 87 343 32z m-271 -200 c29 -18 62 -71 55 -89 -9 -23 -43 -16 -69 15 -13
16 -35 32 -48 35 -31 8 -40 31 -20 51 17 17 43 13 82 -12z m330 18 c22 -14 9
-45 -25 -60 -17 -8 -37 -25 -44 -38 -15 -28 -62 -29 -67 -2 -4 22 45 79 83 95
36 16 36 16 53 5z m-830 -112 c2 -9 -5 -24 -14 -34 -31 -30 -1 -61 95 -100 46
-19 94 -41 107 -50 13 -8 57 -26 98 -40 72 -24 84 -25 333 -25 276 0 330 7
416 52 23 13 80 39 126 58 52 22 93 47 105 63 19 26 19 28 2 40 -10 7 -17 22
-14 33 8 43 180 23 186 -23 4 -26 -24 -38 -59 -25 -21 8 -26 4 -54 -42 -30
-51 -38 -57 -145 -104 -41 -18 -48 -26 -74 -90 -16 -38 -42 -84 -58 -101 -43
-46 -71 -41 -146 24 l-63 55 -211 0 c-180 0 -214 -2 -239 -17 -16 -10 -29 -20
-29 -24 0 -16 -86 -69 -111 -69 -33 0 -67 40 -99 116 -37 86 -42 92 -89 109
-96 36 -109 45 -137 99 -28 53 -28 53 -62 44 -63 -18 -74 38 -12 59 51 18 144
13 148 -8z"/>
</g>
</svg>
